<?xml version="1.0" encoding="utf-8" standalone="no"?>
<svg xmlns:xmlns="http://www.w3.org/2000/svg" height="24.0" width="24.0" xmlns="http://www.w3.org/2000/svg" >
    <symbol id="load">
        <path d="M12,13m-2,0a2,2 0,1 1,4 0a2,2 0,1 1,-4 0"  />
        <path d="M12,4m-1,0a1,1 0,1 1,2 0a1,1 0,1 1,-2 0"  />
        <path d="M16.501,5.206m-0.866,-0.5a1,1 108.435,1 1,1.732 1a1,1 108.435,1 1,-1.732 -1"  />
        <path d="M19.794,8.5m-0.5,-0.866a1,1 91.729,1 1,1 1.732a1,1 91.729,1 1,-1 -1.732"  />
        <path d="M4.206,17.5m-0.5,-0.866a1,1 59.938,1 1,1 1.732a1,1 59.938,1 1,-1 -1.732"  />
        <path d="M21,13m-0,-1a1,1 0,1 1,-0 2a1,1 0,1 1,-0 -2"  />
        <path d="M3,13m-0,-1a1,1 0,1 1,-0 2a1,1 0,1 1,-0 -2"  />
        <path d="M19.794,17.5m0.5,-0.866a1,1 74.65,1 1,-1 1.732a1,1 74.65,1 1,1 -1.732"  />
        <path d="M4.206,8.5m0.5,-0.866a1,1 55.255,1 1,-1 1.732a1,1 55.255,1 1,1 -1.732" />
        <path d="M7.499,5.206m0.866,-0.5a1,1 111.513,1 1,-1.732 1a1,1 111.513,1 1,1.732 -1"/>
    </simbol>
</svg>
