<?xml version="1.0" encoding="utf-8" standalone="no"?>
<svg xmlns:android="http://schemas.android.com/apk/res/android" height="24" width="24" xmlns="http://www.w3.org/2000/svg" id="load">
    <path d="M5.745,4.543L4.433,3.244C4.105,2.919 3.574,2.919 3.246,3.244C2.918,3.568 2.918,4.095 3.246,4.419L5.012,6.168C4.539,6.763 4.147,7.423 3.851,8.13C3.216,9.649 3.049,11.32 3.373,12.932C3.697,14.544 4.497,16.024 5.671,17.187C5.998,17.511 6.53,17.511 6.858,17.187C7.185,16.862 7.185,16.336 6.858,16.011C5.919,15.082 5.279,13.897 5.02,12.607C4.761,11.318 4.894,9.981 5.402,8.766C5.613,8.262 5.885,7.788 6.21,7.353L10.058,11.164C10.057,11.191 10.056,11.219 10.056,11.247C10.056,12.094 10.75,12.781 11.606,12.781C11.634,12.781 11.662,12.78 11.69,12.779L17.728,18.757C18.055,19.081 18.587,19.081 18.915,18.757C19.242,18.432 19.242,17.906 18.915,17.581L18.851,17.519C18.826,17.498 18.802,17.476 18.779,17.453L5.812,4.615C5.788,4.592 5.766,4.568 5.745,4.543Z"/>
    <path d="M19.237,14.772C19.508,14.187 19.711,13.57 19.839,12.932C20.163,11.32 19.996,9.649 19.361,8.13C18.726,6.612 17.65,5.314 16.27,4.401C14.889,3.487 13.266,3 11.606,3C10.394,3 9.202,3.26 8.109,3.755L9.398,5.032C10.104,4.788 10.85,4.662 11.606,4.662C12.934,4.662 14.233,5.052 15.337,5.783C16.441,6.513 17.302,7.551 17.81,8.766C18.318,9.981 18.451,11.318 18.192,12.607C18.131,12.91 18.05,13.207 17.948,13.496L19.237,14.772Z"/>
</svg>
