<?xml version="1.0" encoding="utf-8" standalone="no"?>
<svg xmlns:android="http://schemas.android.com/apk/res/android" height="24.0" width="24.0" xmlns="http://www.w3.org/2000/svg" >
    <path id="load" d="M15.372,5.791C16.517,6.557 17.411,7.645 17.938,8.918C18.466,10.192 18.604,11.593 18.335,12.945C18.066,14.297 17.402,15.538 16.427,16.513C16.087,16.853 16.087,17.405 16.427,17.745C16.768,18.085 17.319,18.085 17.659,17.745C18.878,16.527 19.707,14.974 20.043,13.285C20.379,11.595 20.207,9.844 19.548,8.252C18.888,6.66 17.772,5.3 16.339,4.342C14.907,3.385 13.223,2.874 11.5,2.874C9.777,2.874 8.093,3.385 6.66,4.342C5.228,5.3 4.111,6.66 3.452,8.252C2.793,9.844 2.62,11.595 2.956,13.285C3.293,14.974 4.122,16.527 5.34,17.745C5.681,18.085 6.232,18.085 6.572,17.745C6.912,17.405 6.912,16.853 6.572,16.513C5.598,15.538 4.934,14.297 4.665,12.945C4.396,11.593 4.534,10.192 5.062,8.918C5.589,7.645 6.482,6.557 7.628,5.791C8.774,5.025 10.122,4.617 11.5,4.617C12.878,4.617 14.226,5.025 15.372,5.791ZM12.993,11.461C12.993,12.286 12.325,12.955 11.5,12.955C10.675,12.955 10.007,12.286 10.007,11.461C10.007,10.637 10.675,9.968 11.5,9.968C12.325,9.968 12.993,10.637 12.993,11.461Z"  fill-rule="evenOdd"/>
</svg>
